<svg width="23" height="20" viewBox="0 0 23 20" fill="none" xmlns="http://www.w3.org/2000/svg">
<path d="M11.5 20L9.8325 18.5831C7.89667 16.9301 6.29625 15.5041 5.03125 14.3052C3.76625 13.1063 2.76 12.03 2.0125 11.0763C1.265 10.1226 0.742708 9.24614 0.445625 8.44687C0.148542 7.64759 0 6.83015 0 5.99455C0 4.28701 0.60375 2.86104 1.81125 1.71662C3.01875 0.572207 4.52333 0 6.325 0C7.32167 0 8.27042 0.199818 9.17125 0.599455C10.0721 0.999092 10.8483 1.56222 11.5 2.28883C12.1517 1.56222 12.9279 0.999092 13.8288 0.599455C14.7296 0.199818 15.6783 0 16.675 0C18.4767 0 19.9813 0.572207 21.1888 1.71662C22.3963 2.86104 23 4.28701 23 5.99455C23 6.83015 22.8515 7.64759 22.5544 8.44687C22.2573 9.24614 21.735 10.1226 20.9875 11.0763C20.24 12.03 19.2337 13.1063 17.9688 14.3052C16.7038 15.5041 15.1033 16.9301 13.1675 18.5831L11.5 20Z" fill="white"/>
</svg>
