<svg width="55" height="55" viewBox="0 0 55 55" fill="none" xmlns="http://www.w3.org/2000/svg">
<rect width="55" height="55" rx="27.5" fill="#FFECEC"/>
<path d="M19.25 30.25H30.25V27.5H19.25V30.25ZM19.25 26.125H35.75V23.375H19.25V26.125ZM19.25 22H35.75V19.25H19.25V22ZM13.75 41.25V16.5C13.75 15.7438 14.0193 15.0964 14.5578 14.5578C15.0964 14.0193 15.7438 13.75 16.5 13.75H38.5C39.2563 13.75 39.9036 14.0193 40.4422 14.5578C40.9807 15.0964 41.25 15.7438 41.25 16.5V33C41.25 33.7563 40.9807 34.4036 40.4422 34.9422C39.9036 35.4807 39.2563 35.75 38.5 35.75H19.25L13.75 41.25ZM18.0813 33H38.5V16.5H16.5V34.5469L18.0813 33Z" fill="#D80027"/>
</svg>
