<svg width="50" height="50" viewBox="0 0 50 50" fill="none" xmlns="http://www.w3.org/2000/svg">
<rect width="50" height="50" rx="25" fill="#D8DAFD"/>
<path d="M21.7366 15.263C20.9462 14.8822 20.0793 14.8228 19.29 14.9671L17.5316 15.2906C16.8967 15.4075 16.298 15.6622 15.7809 16.0354C15.2638 16.4087 14.8421 16.8905 14.5478 17.4443C12.5118 21.2861 10.9726 24.4327 10.3779 27.1157C9.76522 29.8826 10.1386 32.2513 11.9821 34.4091C13.2054 35.8412 15.3084 35.5515 16.4019 34.358C17.3204 33.3521 18.2327 32.341 19.1389 31.3249C19.4395 30.9873 19.8123 30.7163 20.2318 30.5302C20.6513 30.3442 21.1077 30.2476 21.5696 30.247H28.4297C29.3626 30.247 30.2487 30.6401 30.8592 31.3239C31.7953 32.3711 32.7548 33.4377 33.5963 34.3559C34.6898 35.5505 36.7928 35.8402 38.0161 34.4071C39.8596 32.2503 40.233 29.8816 39.6202 27.1147C39.0256 24.4317 37.4874 21.2861 35.4504 17.4433C35.1561 16.8895 34.7344 16.4076 34.2173 16.0344C33.7002 15.6612 33.1014 15.4064 32.4666 15.2896L30.7093 14.9661C29.9189 14.8208 29.0519 14.8811 28.2627 15.263C28.1073 15.3367 27.951 15.4155 27.7925 15.4964C27.2863 15.7645 26.7193 15.9086 26.1415 15.916H23.8566C23.2789 15.9086 22.7119 15.7645 22.2057 15.4964C22.0472 15.4145 21.8908 15.3367 21.7366 15.2619V15.263ZM25.0023 23.0815C24.7927 23.0815 24.5853 23.0418 24.3917 22.9647C24.1981 22.8875 24.0222 22.7744 23.874 22.6318C23.7258 22.4892 23.6083 22.32 23.5281 22.1337C23.4479 21.9474 23.4067 21.7477 23.4067 21.5461C23.4067 21.3444 23.4479 21.1448 23.5281 20.9585C23.6083 20.7722 23.7258 20.6029 23.874 20.4603C24.0222 20.3178 24.1981 20.2047 24.3917 20.1275C24.5853 20.0503 24.7927 20.0106 25.0023 20.0106C25.4255 20.0106 25.8313 20.1724 26.1305 20.4603C26.4298 20.7483 26.5979 21.1388 26.5979 21.5461C26.5979 21.9533 26.4298 22.3438 26.1305 22.6318C25.8313 22.9198 25.4255 23.0815 25.0023 23.0815V23.0815Z" fill="#3B44F6"/>
</svg>
