<svg width="55" height="56" viewBox="0 0 55 56" fill="none" xmlns="http://www.w3.org/2000/svg">
<rect y="0.5" width="55" height="55" rx="27.5" fill="#FFECEC"/>
<path fill-rule="evenodd" clip-rule="evenodd" d="M27.4996 26.8001C28.4544 26.8001 29.3701 26.4208 30.0452 25.7457C30.7203 25.0706 31.0996 24.1549 31.0996 23.2001C31.0996 22.2453 30.7203 21.3296 30.0452 20.6545C29.3701 19.9794 28.4544 19.6001 27.4996 19.6001C26.5448 19.6001 25.6292 19.9794 24.954 20.6545C24.2789 21.3296 23.8996 22.2453 23.8996 23.2001C23.8996 24.1549 24.2789 25.0706 24.954 25.7457C25.6292 26.4208 26.5448 26.8001 27.4996 26.8001ZM22.3983 37.6001C20.5765 37.6001 19.0419 36.0687 19.739 34.3856C20.1612 33.3664 20.7799 32.4404 21.5599 31.6604C22.3399 30.8804 23.2659 30.2616 24.2851 29.8395C25.3042 29.4174 26.3965 29.2001 27.4996 29.2001C28.6027 29.2001 29.695 29.4174 30.7142 29.8395C31.7333 30.2616 32.6593 30.8804 33.4393 31.6604C34.2193 32.4404 34.8381 33.3664 35.2602 34.3856C35.9574 36.0687 34.4228 37.6001 32.601 37.6001H22.3983Z" fill="#D80027"/>
</svg>
