<?xml version="1.0" encoding="UTF-8" standalone="no"?>
<!-- Created with Inkscape (http://www.inkscape.org/) -->

<svg
   width="500mm"
   height="500mm"
   viewBox="0 0 500 500"
   version="1.1"
   id="svg1"
   xmlns="http://www.w3.org/2000/svg"
   xmlns:svg="http://www.w3.org/2000/svg">
  <defs
     id="defs1" />
  <g
     id="layer1">
    <g
       id="g9"
       style="display:inline;fill:#ffffff;stroke:none"
       transform="matrix(1.2877718,0,0,1.2877718,42.71587,89.578844)">
      <g
         id="g6"
         transform="translate(0.12915778,-0.51663152)"
         style="fill:#ffffff;stroke:none">
        <path
           id="rect5"
           style="fill:#ffffff;stroke:none;stroke-width:1.16854;paint-order:fill markers stroke"
           d="m 16.965212,-91.163704 h 33.113895 c 1.656995,0 2.990965,1.33397 2.990965,2.990965 v 12.869286 c 0,1.656994 -1.33397,2.990964 -2.990965,2.990964 H 16.965212 c -1.656995,0 -2.990965,-1.33397 -2.990965,-2.990964 v -12.869286 c 0,-1.656995 1.33397,-2.990965 2.990965,-2.990965 z"
           transform="rotate(138.46905)" />
        <path
           id="rect6"
           style="fill:#ffffff;stroke:none;stroke-width:1.39708;paint-order:fill markers stroke"
           d="m 37.191516,64.538237 h 40.610006 c 1.643424,0 2.96647,1.601688 2.96647,3.591228 V 83.58151 c 0,1.98954 -1.323046,3.591228 -2.96647,3.591228 H 37.191516 c -1.643424,0 -2.96647,-1.601688 -2.96647,-3.591228 V 68.129465 c 0,-1.98954 1.323046,-3.591228 2.96647,-3.591228 z" />
      </g>
      <g
         id="g8"
         transform="matrix(1,0,0,-1,0.12917304,254.56088)"
         style="fill:#ffffff;stroke:none">
        <path
           id="rect7"
           style="fill:#ffffff;stroke:none;stroke-width:1.16854;paint-order:fill markers stroke"
           transform="rotate(138.46905)"
           d="m 16.965212,-91.163704 h 33.113895 c 1.656995,0 2.990965,1.33397 2.990965,2.990965 v 12.869286 c 0,1.656994 -1.33397,2.990964 -2.990965,2.990964 H 16.965212 c -1.656995,0 -2.990965,-1.33397 -2.990965,-2.990964 v -12.869286 c 0,-1.656995 1.33397,-2.990965 2.990965,-2.990965 z" />
        <path
           id="rect8"
           style="fill:#ffffff;stroke:none;stroke-width:1.43215;paint-order:fill markers stroke"
           d="m 37.206811,64.666809 h 40.579381 c 1.642186,0 2.964235,1.684373 2.964235,3.776621 v 16.24974 c 0,2.092247 -1.322049,3.77662 -2.964235,3.77662 H 37.206811 c -1.642185,0 -2.964234,-1.684373 -2.964234,-3.77662 V 68.44343 c 0,-2.092248 1.322049,-3.776621 2.964234,-3.776621 z" />
      </g>
      <path
         id="rect9"
         style="fill:#ffffff;stroke:none;stroke-width:1.89551;paint-order:fill markers stroke"
         d="m 33.901764,89.318045 v 75.055645 c 0,1.61216 -1.696762,2.91002 -3.804399,2.91002 H 13.7281 c -2.107638,0 -3.8043999,-1.29786 -3.8043999,-2.91002 V 89.318045 c 0,-1.612149 1.6967619,-2.910018 3.8043999,-2.910018 h 16.369265 c 2.107637,0 3.804399,1.297869 3.804399,2.910018 z" />
    </g>
    <g
       id="g4"
       transform="matrix(-1.1171609,0,0,1.1171609,256.21386,112.1262)"
       style="display:inline;fill:#ffffff;stroke:none">
      <g
         id="g1"
         transform="translate(-7.8095382,9.0410517)"
         style="fill:#ffffff;stroke:none">
        <path
           id="rect1-7"
           style="fill:#ffffff;stroke:none;stroke-width:1.16854;paint-order:fill markers stroke"
           transform="rotate(138.46905)"
           d="m 16.965212,-91.163704 h 33.113895 c 1.656995,0 2.990965,1.33397 2.990965,2.990965 v 12.869286 c 0,1.656994 -1.33397,2.990964 -2.990965,2.990964 H 16.965212 c -1.656995,0 -2.990965,-1.33397 -2.990965,-2.990964 v -12.869286 c 0,-1.656995 1.33397,-2.990965 2.990965,-2.990965 z" />
        <path
           id="rect1"
           style="fill:#ffffff;stroke:none;stroke-width:1.27314;paint-order:fill markers stroke"
           d="m 37.137444,64.587303 h 40.71815 c 1.647801,0 2.97437,1.326569 2.97437,2.97437 v 12.797881 c 0,1.6478 -1.326569,2.974369 -2.97437,2.974369 h -40.71815 c -1.647801,0 -2.97437,-1.326569 -2.97437,-2.974369 V 67.561673 c 0,-1.647801 1.326569,-2.97437 2.97437,-2.97437 z" />
      </g>
      <g
         id="g3"
         transform="matrix(1,0,0,-1,-6.0013126,246.29478)"
         style="fill:#ffffff;stroke:none">
        <path
           id="rect2"
           style="fill:#ffffff;stroke:none;stroke-width:1.16854;paint-order:fill markers stroke"
           transform="rotate(138.46905)"
           d="m 16.965212,-91.163704 h 33.113895 c 1.656995,0 2.990965,1.33397 2.990965,2.990965 v 12.869286 c 0,1.656994 -1.33397,2.990964 -2.990965,2.990964 H 16.965212 c -1.656995,0 -2.990965,-1.33397 -2.990965,-2.990964 v -12.869286 c 0,-1.656995 1.33397,-2.990965 2.990965,-2.990965 z" />
        <path
           id="rect3"
           style="fill:#ffffff;stroke:none;stroke-width:1.27314;paint-order:fill markers stroke"
           d="m 37.13744,64.587303 h 40.718123 c 1.647801,0 2.97437,1.326569 2.97437,2.97437 v 12.797881 c 0,1.6478 -1.326569,2.974369 -2.97437,2.974369 H 37.13744 c -1.6478,0 -2.974369,-1.326569 -2.974369,-2.974369 V 67.561673 c 0,-1.647801 1.326569,-2.97437 2.974369,-2.97437 z" />
      </g>
      <path
         id="rect1-8"
         style="fill:#ffffff;stroke:none;stroke-width:1.13033;paint-order:fill markers stroke"
         d="m 30.020268,116.86619 h 30.429923 c 1.663577,0 3.002846,1.33927 3.002846,3.00284 v 12.92042 c 0,1.66357 -1.339269,3.00284 -3.002846,3.00284 H 30.020268 c -1.663577,0 -3.002846,-1.33927 -3.002846,-3.00284 v -12.92042 c 0,-1.66357 1.339269,-3.00284 3.002846,-3.00284 z" />
      <path
         id="rect11"
         style="fill:#ffffff;stroke:none;stroke-width:1.3189;paint-order:fill markers stroke"
         transform="matrix(-0.66442968,-0.74735079,0.74729553,-0.66449182,0,0)"
         d="m -121.21708,-65.045799 h 44.163281 c 1.646915,0 2.972771,1.325856 2.972771,2.972771 v 12.791007 c 0,1.646915 -1.325856,2.972771 -2.972771,2.972771 h -44.163281 c -1.64691,0 -2.97277,-1.325856 -2.97277,-2.972771 v -12.791007 c 0,-1.646915 1.32586,-2.972771 2.97277,-2.972771 z" />
      <path
         id="rect12"
         style="fill:#ffffff;stroke:none;stroke-width:1.3189;paint-order:fill markers stroke"
         transform="matrix(-0.65857593,0.75251428,-0.75256904,-0.65851335,0,0)"
         d="m 69.501107,-123.94304 h 44.163283 c 1.64691,0 2.97277,1.32586 2.97277,2.97277 v 12.79101 c 0,1.64691 -1.32586,2.97277 -2.97277,2.97277 H 69.501107 c -1.646915,0 -2.972771,-1.32586 -2.972771,-2.97277 v -12.79101 c 0,-1.64691 1.325856,-2.97277 2.972771,-2.97277 z" />
    </g>
    <g
       id="g14"
       transform="matrix(1.2453646,0,0,1.2453646,79.546408,95.602095)">
      <path
         id="rect4"
         style="fill:#ffffff;stroke:none;stroke-width:1.9312;paint-order:fill markers stroke"
         d="m 222.94209,84.449088 v 74.298682 c 0,1.60876 -1.77819,2.90391 -3.98695,2.90391 h -17.15478 c -2.20878,0 -3.98695,-1.29515 -3.98695,-2.90391 V 84.449088 c 0,-1.608765 1.77817,-2.903909 3.98695,-2.903909 h 17.15478 c 2.20876,0 3.98695,1.295144 3.98695,2.903909 z" />
      <path
         id="rect13"
         style="fill:#ffffff;stroke:none;stroke-width:1.80458;paint-order:fill markers stroke"
         d="M 243.10742,82.440536 H 174.128 c -1.61466,0 -2.91453,-1.662599 -2.91453,-3.7278 V 62.673057 c 0,-2.065201 1.29987,-3.7278 2.91453,-3.7278 h 68.97942 c 1.61466,0 2.91454,1.662599 2.91454,3.7278 v 16.039679 c 0,2.065201 -1.29988,3.7278 -2.91454,3.7278 z" />
      <path
         style="fill:#ffffff;stroke:none;stroke-width:1.84521;paint-order:fill markers stroke"
         d="m 198.43506,151.2401 c -0.19509,38.101 -34.1745,7.54382 -34.1745,7.54382 l -15.80126,17.74254 c 0,0 22.50781,13.25234 34.78578,14.26961 4.46121,0.36962 38.66408,-0.39593 39.50908,-36.58103"
         id="path14" />
    </g>
  </g>
</svg>
